<svg width="40" height="40" viewBox="0 0 40 40" fill="none" xmlns="http://www.w3.org/2000/svg">
<path d="M8.33335 30H5.00002C4.11597 30 3.26812 29.6488 2.643 29.0237C2.01788 28.3986 1.66669 27.5507 1.66669 26.6667V13.3333C1.66669 12.4493 2.01788 11.6014 2.643 10.9763C3.26812 10.3512 4.11597 10 5.00002 10H10.3167M25 10H28.3334C29.2174 10 30.0653 10.3512 30.6904 10.9763C31.3155 11.6014 31.6667 12.4493 31.6667 13.3333V26.6667C31.6667 27.5507 31.3155 28.3986 30.6904 29.0237C30.0653 29.6488 29.2174 30 28.3334 30H23.0167" stroke="white" stroke-width="2" stroke-linecap="round" stroke-linejoin="round"/>
<path d="M38.3334 21.6667V18.3334" stroke="white" stroke-width="2" stroke-linecap="round" stroke-linejoin="round"/>
<path d="M18.3333 10L11.6666 20H21.6666L15 30" stroke="white" stroke-width="2" stroke-linecap="round" stroke-linejoin="round"/>
</svg>
