<svg width="240" height="32" viewBox="0 0 240 32" fill="none" xmlns="http://www.w3.org/2000/svg">
<g clip-path="url(#clip0_2_140)">
<path d="M86.5589 32C81.8784 32 77.5981 30.8966 73.9646 27.8314C71.4704 25.7165 70.0231 23.0192 69.4688 19.8621C68.6374 15.1724 69.0377 10.6973 71.8399 6.62069C74.3957 2.85058 78.214 1.22605 82.4942 0.398468C86.9284 -0.459769 91.2702 0.0613034 95.3964 1.96169C100.477 4.29119 103.033 8.30651 103.711 13.7625C104.265 18.2682 103.495 22.3755 100.724 26.023C98.291 29.2107 94.9038 30.7739 91.0854 31.5402C89.5766 31.8161 88.0677 31.8467 86.5589 32ZM86.4357 25.5326C92.4403 25.5939 96.3818 23.2031 97.2132 17.8391C97.9831 12.6897 95.5504 8.15326 90.7775 7.14176C88.6836 6.68199 86.4357 6.62069 84.2802 6.77395C80.8006 6.98851 77.7521 8.42912 76.4896 11.8621C75.1347 15.5709 75.0731 19.3103 77.9061 22.5287C80.154 25.0728 83.2333 25.4713 86.4357 25.5326Z" fill="#020202"/>
<path d="M212.348 31.1418C212.348 20.9349 212.348 10.8812 212.348 0.735634C221.555 0.735634 230.7 0.735634 240 0.735634C240 2.66667 240 4.56705 240 6.65134C232.979 6.65134 225.958 6.65134 218.845 6.65134C218.845 8.76629 218.845 10.7586 218.845 12.9962C224.48 12.9962 230.177 12.9962 235.935 12.9962C235.935 14.8353 235.935 16.3985 235.935 18.2069C230.208 18.2069 224.542 18.2069 218.814 18.2069C218.814 20.5977 218.814 22.8046 218.814 25.1648C225.866 25.1648 232.887 25.1648 240 25.1648C240 27.249 240 29.1801 240 31.1418C230.762 31.1418 221.617 31.1418 212.348 31.1418Z" fill="#020202"/>
<path d="M170.1 0.735632C170.1 7.32567 170.316 13.7931 169.977 20.2605C169.885 22.3755 168.714 24.6437 167.513 26.4828C165.358 29.8238 161.817 31.2337 157.998 31.7241C153.564 32.3065 149.284 31.7854 145.466 29.2414C142.14 27.0345 140.385 23.7548 140.2 19.9847C139.892 13.6398 140.108 7.23372 140.108 0.735632C142.294 0.735632 144.388 0.735632 146.667 0.735632C146.667 1.44061 146.667 2.08429 146.667 2.75862C146.728 8.03065 146.667 13.272 146.851 18.5134C147.005 22.6207 149.284 24.9502 153.41 25.41C155.997 25.6858 158.553 25.5632 160.77 23.8774C162.402 22.6513 163.295 21.0268 163.356 19.0345C163.449 13.6092 163.449 8.18391 163.48 2.75862C163.48 2.08429 163.48 1.44061 163.48 0.704981C165.727 0.735632 167.791 0.735632 170.1 0.735632Z" fill="#020202"/>
<path d="M41.2009 24.8889C47.729 24.8276 52.5019 22.1916 55.7968 17.0115C58.9376 12.1073 59.6767 6.55939 59.4919 0.766285C61.709 0.766285 63.8029 0.766285 65.8968 0.766285C66.7898 17.5326 57.7983 33.9923 34.642 31.1111C34.642 21.0268 34.642 10.9425 34.642 0.735634C36.7975 0.735634 38.9222 0.735634 41.2009 0.735634C41.2009 8.73563 41.2009 16.705 41.2009 24.8889Z" fill="#020202"/>
<path d="M108.052 0.735634C110.331 0.735634 112.456 0.735634 114.796 0.735634C114.796 1.34866 114.796 1.93104 114.796 2.51341C114.796 8.42912 114.796 14.3755 114.796 20.2912C114.796 23.2644 116.058 24.5824 119.076 24.5824C124.65 24.613 130.192 24.5824 135.766 24.5824C136.382 24.5824 136.967 24.5824 137.644 24.5824C137.644 26.8199 137.644 28.8736 137.644 31.1724C137.059 31.1724 136.443 31.1724 135.858 31.1724C129.915 31.1724 123.941 31.1724 117.998 31.1724C112.579 31.1724 108.176 27.1264 108.083 21.7012C107.96 14.8046 108.052 7.8774 108.052 0.735634Z" fill="#020202"/>
<path d="M23.341 13.4253C23.341 15.3257 23.341 16.9502 23.341 18.7893C22.1401 18.7893 21.0008 18.7893 19.8306 18.7893C16.4126 18.7893 12.9638 18.7893 9.5458 18.7893C7.51347 18.7893 6.55889 19.7701 6.5281 21.7318C6.5281 22.5594 6.5281 23.4176 6.5281 24.2452C6.5281 24.4598 6.55889 24.6743 6.58968 25.1034C13.7028 25.1034 20.7852 25.1034 27.9908 25.1034C27.9908 27.1571 27.9908 29.0575 27.9908 31.0498C18.7837 31.0498 9.48422 31.0498 0.153965 31.0498C0.153965 26.728 6.63102e-07 22.3755 0.246344 18.0536C0.369516 15.7548 2.95612 13.9464 5.75828 13.7931C9.45343 13.5785 13.1486 13.5172 16.8745 13.4559C19.03 13.364 21.1855 13.4253 23.341 13.4253Z" fill="#020202"/>
<path d="M194.488 31.2337C192.363 31.2337 190.362 31.2337 188.083 31.2337C188.083 30.59 188.083 29.977 188.083 29.3946C188.083 23.4789 188.083 17.5326 188.083 11.6169C188.083 7.84674 186.944 6.71264 183.187 6.71264C180.323 6.71264 177.49 6.71264 174.534 6.71264C174.534 4.68966 174.534 2.78927 174.534 0.429119C178.907 0.67433 183.31 0.521073 187.529 1.28736C191.871 2.08429 194.55 5.7318 194.611 10.1149C194.734 16.9502 194.642 23.7548 194.642 30.59C194.642 30.7433 194.58 30.8966 194.488 31.2337Z" fill="#020202"/>
<path d="M6.52809 6.65134C6.52809 8.82759 6.52809 10.728 6.52809 12.5977C2.89453 12.5364 0.277128 10.1762 0.0615773 6.71264C-0.0615943 4.78161 0.0307844 2.81992 0.0307844 0.766285C9.36104 0.766285 18.5989 0.766285 27.9908 0.766285C27.9908 2.63602 27.9908 4.5364 27.9908 6.65134C20.9392 6.65134 13.826 6.65134 6.52809 6.65134Z" fill="#020202"/>
<path d="M208.191 0.766285C208.191 2.75862 208.191 4.62835 208.191 6.65134C203.972 6.65134 199.784 6.65134 195.504 6.65134C195.504 4.75096 195.504 2.81992 195.504 0.766285C199.661 0.766285 203.818 0.766285 208.191 0.766285Z" fill="#020202"/>
</g>
<defs>
<clipPath id="clip0_2_140">
<rect width="240" height="32" fill="white"/>
</clipPath>
</defs>
</svg>
