<svg width="50" height="50" viewBox="0 0 50 50" fill="none" xmlns="http://www.w3.org/2000/svg">
<path d="M40.404 21.1498C40.404 24.2498 40.404 26.8998 40.404 29.8998C38.454 29.8998 36.604 29.8998 34.704 29.8998C29.154 29.8998 23.554 29.8998 18.004 29.8998C14.704 29.8998 13.154 31.4998 13.104 34.6998C13.104 36.0498 13.104 37.4498 13.104 38.7998C13.104 39.1498 13.154 39.4998 13.204 40.1998C24.754 40.1998 36.254 40.1998 47.954 40.1998C47.954 43.5498 47.954 46.6498 47.954 49.8998C33.004 49.8998 17.904 49.8998 2.75398 49.8998C2.75398 42.8498 2.50398 35.7498 2.90398 28.6998C3.10398 24.9498 7.30398 21.9998 11.854 21.7498C17.854 21.3998 23.854 21.2998 29.904 21.1998C33.404 21.0498 36.904 21.1498 40.404 21.1498Z" fill="#020202" fill-opacity="0.5"/>
<path d="M13.104 10.1C13.104 13.65 13.104 16.75 13.104 19.8C7.204 19.7 2.954 15.85 2.604 10.2C2.404 7.05 2.554 3.85 2.554 0.5C17.704 0.5 32.704 0.5 47.954 0.5C47.954 3.55 47.954 6.65 47.954 10.1C36.504 10.1 24.954 10.1 13.104 10.1Z" fill="#020202" fill-opacity="0.5"/>
</svg>
