<svg width="72" height="72" viewBox="0 0 72 72" fill="none" xmlns="http://www.w3.org/2000/svg">
<g filter="url(#filter0_b_34_167)">
<rect width="72" height="72" rx="30" fill="white" fill-opacity="0.1"/>
<path d="M26.4 25.8H29.6V23.8H26.4V25.8ZM31.8 28V44H33.8V28H31.8ZM29.6 46.2H26.4V48.2H29.6V46.2ZM24.2 44V28H22.2V44H24.2ZM26.4 46.2C25.185 46.2 24.2 45.215 24.2 44H22.2C22.2 46.3196 24.0804 48.2 26.4 48.2V46.2ZM31.8 44C31.8 45.215 30.815 46.2 29.6 46.2V48.2C31.9196 48.2 33.8 46.3196 33.8 44H31.8ZM29.6 25.8C30.815 25.8 31.8 26.785 31.8 28H33.8C33.8 25.6804 31.9196 23.8 29.6 23.8V25.8ZM26.4 23.8C24.0804 23.8 22.2 25.6804 22.2 28H24.2C24.2 26.785 25.185 25.8 26.4 25.8V23.8ZM42.4 25.8H45.6V23.8H42.4V25.8ZM47.8 28V44H49.8V28H47.8ZM45.6 46.2H42.4V48.2H45.6V46.2ZM40.2 44V28H38.2V44H40.2ZM42.4 46.2C41.185 46.2 40.2 45.215 40.2 44H38.2C38.2 46.3196 40.0804 48.2 42.4 48.2V46.2ZM47.8 44C47.8 45.215 46.815 46.2 45.6 46.2V48.2C47.9196 48.2 49.8 46.3196 49.8 44H47.8ZM45.6 25.8C46.815 25.8 47.8 26.785 47.8 28H49.8C49.8 25.6804 47.9196 23.8 45.6 23.8V25.8ZM42.4 23.8C40.0804 23.8 38.2 25.6804 38.2 28H40.2C40.2 26.785 41.185 25.8 42.4 25.8V23.8Z" fill="white"/>
</g>
<defs>
<filter id="filter0_b_34_167" x="-50" y="-50" width="172" height="172" filterUnits="userSpaceOnUse" color-interpolation-filters="sRGB">
<feFlood flood-opacity="0" result="BackgroundImageFix"/>
<feGaussianBlur in="BackgroundImage" stdDeviation="25"/>
<feComposite in2="SourceAlpha" operator="in" result="effect1_backgroundBlur_34_167"/>
<feBlend mode="normal" in="SourceGraphic" in2="effect1_backgroundBlur_34_167" result="shape"/>
</filter>
</defs>
</svg>
