<svg width="16" height="16" viewBox="0 0 16 16" fill="none" xmlns="http://www.w3.org/2000/svg">
<path fill-rule="evenodd" clip-rule="evenodd" d="M8 15.3333C8 15.3333 14 11.3333 14 6.66667C14 5.07537 13.3679 3.54924 12.2426 2.42403C11.1174 1.29881 9.5913 0.666667 8 0.666667C6.4087 0.666667 4.88258 1.29881 3.75736 2.42403C2.63214 3.54924 2 5.07537 2 6.66667C2 11.3333 8 15.3333 8 15.3333ZM7 6.66667C7 6.11438 7.44772 5.66667 8 5.66667C8.55228 5.66667 9 6.11438 9 6.66667C9 7.21895 8.55228 7.66667 8 7.66667C7.44772 7.66667 7 7.21895 7 6.66667ZM8 3.66667C6.34315 3.66667 5 5.00981 5 6.66667C5 8.32352 6.34315 9.66667 8 9.66667C9.65685 9.66667 11 8.32352 11 6.66667C11 5.00981 9.65685 3.66667 8 3.66667Z" fill="#020202"/>
</svg>
