<?xml version="1.0" encoding="utf-8"?><svg width="72" height="72" fill="none" xmlns="http://www.w3.org/2000/svg" viewBox="0 0 72 72"><g filter="url(#kfilter0_b_34_167)" fill="#fff"><rect width="72" height="72" rx="30" fill-opacity=".1"/><path d="M26.4 25.8h3.2v-2h-3.2v2zm5.4 2.2v16h2V28h-2zm-2.2 18.2h-3.2v2h3.2v-2zM24.2 44V28h-2v16h2zm2.2 2.2a2.2 2.2 0 01-2.2-2.2h-2a4.2 4.2 0 004.2 4.2v-2zm5.4-2.2a2.2 2.2 0 01-2.2 2.2v2a4.2 4.2 0 004.2-4.2h-2zm-2.2-18.2a2.2 2.2 0 012.2 2.2h2a4.2 4.2 0 00-4.2-4.2v2zm-3.2-2a4.2 4.2 0 00-4.2 4.2h2a2.2 2.2 0 012.2-2.2v-2zm16 2h3.2v-2h-3.2v2zm5.4 2.2v16h2V28h-2zm-2.2 18.2h-3.2v2h3.2v-2zM40.2 44V28h-2v16h2zm2.2 2.2a2.2 2.2 0 01-2.2-2.2h-2a4.2 4.2 0 004.2 4.2v-2zm5.4-2.2a2.2 2.2 0 01-2.2 2.2v2a4.2 4.2 0 004.2-4.2h-2zm-2.2-18.2a2.2 2.2 0 012.2 2.2h2a4.2 4.2 0 00-4.2-4.2v2zm-3.2-2a4.2 4.2 0 00-4.2 4.2h2a2.2 2.2 0 012.2-2.2v-2z"/></g><defs><filter id="kfilter0_b_34_167" x="-50" y="-50" width="172" height="172" filterUnits="userSpaceOnUse" color-interpolation-filters="sRGB"><feFlood flood-opacity="0" result="BackgroundImageFix"/><feGaussianBlur in="BackgroundImage" stdDeviation="25"/><feComposite in2="SourceAlpha" operator="in" result="effect1_backgroundBlur_34_167"/><feBlend in="SourceGraphic" in2="effect1_backgroundBlur_34_167" result="shape"/></filter></defs></svg>