<?xml version="1.0" encoding="utf-8"?><svg viewBox="0 0 240 72" xmlns="http://www.w3.org/2000/svg" xmlns:xlink="http://www.w3.org/1999/xlink"><style>:root>svg{display:none}:root>svg:target{display:block}</style><svg fill="none" viewBox="0 0 16 16" id="arrow" xmlns="http://www.w3.org/2000/svg"><path d="M4 6l4 4 4-4" stroke="#020202" stroke-linecap="round" stroke-linejoin="round"/></svg><svg fill="none" viewBox="0 0 32 32" id="burger_menu" xmlns="http://www.w3.org/2000/svg"><path d="M4 8h24M4 16h24m-11 8h11" stroke="#000" stroke-width="2"/></svg><svg fill="none" viewBox="0 0 12 12" id="ellipse_icon" xmlns="http://www.w3.org/2000/svg"><circle cx="6" cy="6" r="4.5" stroke="#6AA8FB" stroke-width="3"/></svg><svg fill="none" viewBox="0 0 32 32" id="icon-close" xmlns="http://www.w3.org/2000/svg"><path d="M8 8l16 16m0-16L8 24" stroke="#000" stroke-width="2"/></svg><svg fill="none" viewBox="0 0 32 32" id="icon-menu" xmlns="http://www.w3.org/2000/svg"><path d="M4 8h24M4 16h24m-11 8h11" stroke="#000" stroke-width="2"/></svg><svg fill="none" viewBox="0 0 72 72" id="icon_energy" xmlns="http://www.w3.org/2000/svg"><rect width="72" height="72" rx="20" fill="#6AA8FB"/><path d="M37.333 22.667L24 38.667h12l-1.333 10.666 13.333-16H36l1.333-10.666z" stroke="#fff" stroke-width="2" stroke-linecap="round" stroke-linejoin="round"/></svg><svg fill="none" viewBox="0 0 240 32" id="logo" xmlns="http://www.w3.org/2000/svg"><g clip-path="url(#gclip0_2_140)" fill="#020202"><path d="M86.559 32c-4.68 0-8.96-1.103-12.594-4.169-2.495-2.114-3.942-4.812-4.496-7.969-.832-4.69-.431-9.165 2.37-13.241 2.557-3.77 6.375-5.395 10.655-6.223C86.928-.46 91.27.061 95.396 1.962c5.081 2.33 7.637 6.345 8.315 11.8.554 4.506-.216 8.613-2.987 12.261-2.433 3.188-5.82 4.75-9.639 5.517-1.508.276-3.017.307-4.526.46zm-.123-6.467c6.004.06 9.946-2.33 10.777-7.694.77-5.15-1.663-9.686-6.435-10.697-2.094-.46-4.342-.521-6.498-.368-3.48.215-6.528 1.655-7.79 5.088-1.355 3.709-1.417 7.448 1.416 10.667 2.248 2.544 5.327 2.942 8.53 3.004zM212.348 31.142V.736H240V6.65h-21.155v6.345h17.09v5.21h-17.121v6.959H240v5.977h-27.652zM170.1.736c0 6.59.216 13.057-.123 19.524-.092 2.115-1.263 4.384-2.464 6.223-2.155 3.34-5.696 4.75-9.515 5.241-4.434.582-8.714.061-12.532-2.483-3.326-2.206-5.081-5.486-5.266-9.256-.308-6.345-.092-12.751-.092-19.25h6.559V2.76c.061 5.272 0 10.513.184 15.754.154 4.108 2.433 6.437 6.559 6.897 2.587.276 5.143.153 7.36-1.533 1.632-1.226 2.525-2.85 2.586-4.842.093-5.426.093-10.851.124-16.276V.705c2.247.03 4.311.03 6.62.03zM41.2 24.889c6.529-.061 11.302-2.697 14.597-7.877 3.14-4.905 3.88-10.453 3.695-16.246h6.405c.893 16.767-8.099 33.226-31.255 30.345V.736h6.559v24.153zM108.052.736h6.744V20.29c0 2.973 1.262 4.291 4.28 4.291 5.574.031 11.116 0 16.69 0h1.878v6.59h-19.646c-5.419 0-9.822-4.046-9.915-9.47-.123-6.897-.031-13.825-.031-20.966zM23.341 13.425v5.364H9.546c-2.033 0-2.987.981-3.018 2.943v2.513c0 .215.03.43.062.858h21.4v5.947H.155c0-4.322-.154-8.675.092-12.996.124-2.3 2.71-4.108 5.512-4.26 3.695-.216 7.39-.277 11.117-.338 2.155-.092 4.31-.03 6.466-.03zM194.488 31.234h-6.405v-1.84-17.777c0-3.77-1.139-4.904-4.896-4.904h-8.653V.429c4.373.245 8.776.092 12.995.858 4.342.797 7.021 4.445 7.082 8.828.123 6.835.031 13.64.031 20.475 0 .153-.062.307-.154.644zM6.528 6.651v5.947C2.895 12.536.278 10.176.062 6.713-.062 4.782.03 2.82.03.766h27.96v5.885H6.528zM208.191.766v5.885h-12.687V.766h12.687z"/></g><defs><clipPath id="gclip0_2_140"><path fill="#fff" d="M0 0h240v32H0z"/></clipPath></defs></svg><svg fill="none" viewBox="0 0 50 50" id="logo-f" xmlns="http://www.w3.org/2000/svg"><path d="M40.404 21.15v8.75h-22.4c-3.3 0-4.85 1.6-4.9 4.8v4.1c0 .35.05.7.1 1.4h34.75v9.7h-45.2c0-7.05-.25-14.15.15-21.2.2-3.75 4.4-6.7 8.95-6.95 6-.35 12-.45 18.05-.55 3.5-.15 7-.05 10.5-.05zM13.104 10.1v9.7c-5.9-.1-10.15-3.95-10.5-9.6-.2-3.15-.05-6.35-.05-9.7h45.4v9.6h-34.85z" fill="#020202" fill-opacity=".5"/></svg><svg fill="none" viewBox="0 0 50 50" id="logo_mini" xmlns="http://www.w3.org/2000/svg"><path d="M40.404 21.15v8.75h-22.4c-3.3 0-4.85 1.6-4.9 4.8v4.1c0 .35.05.7.1 1.4h34.75v9.7h-45.2c0-7.05-.25-14.15.15-21.2.2-3.75 4.4-6.7 8.95-6.95 6-.35 12-.45 18.05-.55 3.5-.15 7-.05 10.5-.05zM13.104 10.1v9.7c-5.9-.1-10.15-3.95-10.5-9.6-.2-3.15-.05-6.35-.05-9.7h45.4v9.6h-34.85z" fill="#020202" fill-opacity=".5"/></svg><svg fill="none" viewBox="0 0 24 24" id="minus" xmlns="http://www.w3.org/2000/svg"><path d="M5 12h14" stroke="#6AA8FB" stroke-width="2" stroke-linecap="round" stroke-linejoin="round"/></svg><svg fill="none" viewBox="0 0 72 72" id="pause_icon" xmlns="http://www.w3.org/2000/svg"><g filter="url(#kfilter0_b_34_167)" fill="#fff"><rect width="72" height="72" rx="30" fill-opacity=".1"/><path d="M26.4 25.8h3.2v-2h-3.2v2zm5.4 2.2v16h2V28h-2zm-2.2 18.2h-3.2v2h3.2v-2zM24.2 44V28h-2v16h2zm2.2 2.2a2.2 2.2 0 01-2.2-2.2h-2a4.2 4.2 0 004.2 4.2v-2zm5.4-2.2a2.2 2.2 0 01-2.2 2.2v2a4.2 4.2 0 004.2-4.2h-2zm-2.2-18.2a2.2 2.2 0 012.2 2.2h2a4.2 4.2 0 00-4.2-4.2v2zm-3.2-2a4.2 4.2 0 00-4.2 4.2h2a2.2 2.2 0 012.2-2.2v-2zm16 2h3.2v-2h-3.2v2zm5.4 2.2v16h2V28h-2zm-2.2 18.2h-3.2v2h3.2v-2zM40.2 44V28h-2v16h2zm2.2 2.2a2.2 2.2 0 01-2.2-2.2h-2a4.2 4.2 0 004.2 4.2v-2zm5.4-2.2a2.2 2.2 0 01-2.2 2.2v2a4.2 4.2 0 004.2-4.2h-2zm-2.2-18.2a2.2 2.2 0 012.2 2.2h2a4.2 4.2 0 00-4.2-4.2v2zm-3.2-2a4.2 4.2 0 00-4.2 4.2h2a2.2 2.2 0 012.2-2.2v-2z"/></g><defs><filter id="kfilter0_b_34_167" x="-50" y="-50" width="172" height="172" filterUnits="userSpaceOnUse" color-interpolation-filters="sRGB"><feFlood flood-opacity="0" result="BackgroundImageFix"/><feGaussianBlur in="BackgroundImage" stdDeviation="25"/><feComposite in2="SourceAlpha" operator="in" result="effect1_backgroundBlur_34_167"/><feBlend in="SourceGraphic" in2="effect1_backgroundBlur_34_167" result="shape"/></filter></defs></svg><svg fill="none" viewBox="0 0 16 16" id="phone" xmlns="http://www.w3.org/2000/svg"><path d="M14.667 11.28v2a1.333 1.333 0 01-1.454 1.333 13.194 13.194 0 01-5.753-2.046 13.001 13.001 0 01-4-4 13.193 13.193 0 01-2.047-5.78A1.333 1.333 0 012.74 1.333h2A1.333 1.333 0 016.073 2.48a8.56 8.56 0 00.467 1.873 1.333 1.333 0 01-.3 1.407l-.847.847a10.667 10.667 0 004 4l.847-.847a1.333 1.333 0 011.407-.3 8.561 8.561 0 001.873.467 1.334 1.334 0 011.147 1.353z" fill="#020202"/></svg><svg fill="none" viewBox="0 0 16 16" id="pin_icon" xmlns="http://www.w3.org/2000/svg"><path fill-rule="evenodd" clip-rule="evenodd" d="M8 15.333s6-4 6-8.666a6 6 0 10-12 0c0 4.666 6 8.666 6 8.666zM7 6.667a1 1 0 112 0 1 1 0 01-2 0zm1-3a3 3 0 100 6 3 3 0 000-6z" fill="#020202"/></svg><svg fill="none" viewBox="0 0 72 72" id="play_icon" xmlns="http://www.w3.org/2000/svg"><g filter="url(#nfilter0_b_34_1756)"><rect width="72" height="72" rx="30" fill="#fff" fill-opacity=".1"/><path d="M28.666 27.663c0-1.582 1.751-2.538 3.082-1.682l12.968 8.337a2 2 0 010 3.364L31.748 46.02c-1.331.856-3.082-.1-3.082-1.682V27.663z" stroke="#fff" stroke-width="2" stroke-linecap="round" stroke-linejoin="round"/></g><defs><filter id="nfilter0_b_34_1756" x="-50" y="-50" width="172" height="172" filterUnits="userSpaceOnUse" color-interpolation-filters="sRGB"><feFlood flood-opacity="0" result="BackgroundImageFix"/><feGaussianBlur in="BackgroundImage" stdDeviation="25"/><feComposite in2="SourceAlpha" operator="in" result="effect1_backgroundBlur_34_1756"/><feBlend in="SourceGraphic" in2="effect1_backgroundBlur_34_1756" result="shape"/></filter></defs></svg><svg fill="none" viewBox="0 0 24 24" id="plus" xmlns="http://www.w3.org/2000/svg"><path d="M12 5v14M5 12h14" stroke="#6AA8FB" stroke-width="2" stroke-linecap="round" stroke-linejoin="round"/></svg></svg>